<svg width="20" height="21" viewBox="0 0 20 21" fill="none" xmlns="http://www.w3.org/2000/svg">
<path d="M9.40825 8.14159L5.87492 11.6749C5.79681 11.7524 5.73481 11.8446 5.69251 11.9461C5.6502 12.0477 5.62842 12.1566 5.62842 12.2666C5.62842 12.3766 5.6502 12.4855 5.69251 12.5871C5.73481 12.6886 5.79681 12.7808 5.87492 12.8583C6.03105 13.0135 6.24226 13.1006 6.46242 13.1006C6.68257 13.1006 6.89378 13.0135 7.04992 12.8583L9.99992 9.90826L12.9499 12.8583C13.1061 13.0135 13.3173 13.1006 13.5374 13.1006C13.7576 13.1006 13.9688 13.0135 14.1249 12.8583C14.2022 12.7804 14.2633 12.688 14.3047 12.5865C14.3462 12.485 14.3672 12.3763 14.3666 12.2666C14.3672 12.1569 14.3462 12.0482 14.3047 11.9467C14.2633 11.8451 14.2022 11.7528 14.1249 11.6749L10.5916 8.14159C10.5141 8.06349 10.4219 8.00149 10.3204 7.95918C10.2188 7.91688 10.1099 7.89509 9.99992 7.89509C9.88991 7.89509 9.78098 7.91688 9.67944 7.95918C9.57789 8.00149 9.48572 8.06349 9.40825 8.14159Z" fill="#0057FF"/>
</svg>
