<svg width="20" height="20" viewBox="0 0 20 20" fill="none" xmlns="http://www.w3.org/2000/svg">
<path d="M10.5916 12.3584L14.125 8.82507C14.2031 8.74761 14.2651 8.65544 14.3074 8.55389C14.3497 8.45234 14.3715 8.34342 14.3715 8.23341C14.3715 8.1234 14.3497 8.01448 14.3074 7.91293C14.2651 7.81138 14.2031 7.71921 14.125 7.64174C13.9688 7.48653 13.7576 7.39941 13.5375 7.39941C13.3173 7.39941 13.1061 7.48653 12.95 7.64174L9.99996 10.5917L7.04996 7.64174C6.89383 7.48653 6.68262 7.39941 6.46246 7.39941C6.24231 7.39941 6.0311 7.48653 5.87496 7.64174C5.79773 7.71961 5.73662 7.81195 5.69515 7.91349C5.65368 8.01502 5.63266 8.12374 5.6333 8.23341C5.63266 8.34308 5.65368 8.4518 5.69515 8.55333C5.73662 8.65486 5.79773 8.74721 5.87496 8.82507L9.4083 12.3584C9.48576 12.4365 9.57793 12.4985 9.67948 12.5408C9.78103 12.5831 9.88995 12.6049 9.99996 12.6049C10.11 12.6049 10.2189 12.5831 10.3204 12.5408C10.422 12.4985 10.5142 12.4365 10.5916 12.3584Z" fill="#0057FF"/>
</svg>
