<svg width="24" height="24" viewBox="0 0 24 24" fill="none" xmlns="http://www.w3.org/2000/svg">
<path d="M11.2899 9.16981L7.04995 13.4098C6.95622 13.5028 6.88183 13.6134 6.83106 13.7352C6.78029 13.8571 6.75415 13.9878 6.75415 14.1198C6.75415 14.2518 6.78029 14.3825 6.83106 14.5044C6.88183 14.6262 6.95622 14.7369 7.04995 14.8298C7.23731 15.0161 7.49076 15.1206 7.75495 15.1206C8.01913 15.1206 8.27259 15.0161 8.45995 14.8298L11.9999 11.2898L15.5399 14.8298C15.7273 15.0161 15.9808 15.1206 16.2449 15.1206C16.5091 15.1206 16.7626 15.0161 16.9499 14.8298C17.0426 14.7364 17.116 14.6256 17.1657 14.5037C17.2155 14.3819 17.2407 14.2514 17.2399 14.1198C17.2407 13.9882 17.2155 13.8577 17.1657 13.7359C17.116 13.6141 17.0426 13.5033 16.9499 13.4098L12.7099 9.16981C12.617 9.07608 12.5064 9.00169 12.3845 8.95092C12.2627 8.90015 12.132 8.87401 11.9999 8.87401C11.8679 8.87401 11.7372 8.90015 11.6154 8.95092C11.4935 9.00169 11.3829 9.07608 11.2899 9.16981Z" fill="#333333"/>
</svg>
