<svg width="10" height="11" viewBox="0 0 10 11" fill="none" xmlns="http://www.w3.org/2000/svg">
<path d="M5.83301 3.83333H6.24967C6.36018 3.83333 6.46616 3.78943 6.5443 3.71129C6.62244 3.63315 6.66634 3.52717 6.66634 3.41667C6.66634 3.30616 6.62244 3.20018 6.5443 3.12204C6.46616 3.0439 6.36018 3 6.24967 3H5.83301C5.7225 3 5.61652 3.0439 5.53838 3.12204C5.46024 3.20018 5.41634 3.30616 5.41634 3.41667C5.41634 3.52717 5.46024 3.63315 5.53838 3.71129C5.61652 3.78943 5.7225 3.83333 5.83301 3.83333ZM5.83301 5.5H6.24967C6.36018 5.5 6.46616 5.4561 6.5443 5.37796C6.62244 5.29982 6.66634 5.19384 6.66634 5.08333C6.66634 4.97283 6.62244 4.86685 6.5443 4.78871C6.46616 4.71057 6.36018 4.66667 6.24967 4.66667H5.83301C5.7225 4.66667 5.61652 4.71057 5.53838 4.78871C5.46024 4.86685 5.41634 4.97283 5.41634 5.08333C5.41634 5.19384 5.46024 5.29982 5.53838 5.37796C5.61652 5.4561 5.7225 5.5 5.83301 5.5ZM3.74967 3.83333H4.16634C4.27685 3.83333 4.38283 3.78943 4.46097 3.71129C4.53911 3.63315 4.58301 3.52717 4.58301 3.41667C4.58301 3.30616 4.53911 3.20018 4.46097 3.12204C4.38283 3.0439 4.27685 3 4.16634 3H3.74967C3.63917 3 3.53319 3.0439 3.45505 3.12204C3.37691 3.20018 3.33301 3.30616 3.33301 3.41667C3.33301 3.52717 3.37691 3.63315 3.45505 3.71129C3.53319 3.78943 3.63917 3.83333 3.74967 3.83333ZM3.74967 5.5H4.16634C4.27685 5.5 4.38283 5.4561 4.46097 5.37796C4.53911 5.29982 4.58301 5.19384 4.58301 5.08333C4.58301 4.97283 4.53911 4.86685 4.46097 4.78871C4.38283 4.71057 4.27685 4.66667 4.16634 4.66667H3.74967C3.63917 4.66667 3.53319 4.71057 3.45505 4.78871C3.37691 4.86685 3.33301 4.97283 3.33301 5.08333C3.33301 5.19384 3.37691 5.29982 3.45505 5.37796C3.53319 5.4561 3.63917 5.5 3.74967 5.5ZM8.74967 8.83333H8.33301V1.75C8.33301 1.63949 8.28911 1.53351 8.21097 1.45537C8.13283 1.37723 8.02685 1.33333 7.91634 1.33333H2.08301C1.9725 1.33333 1.86652 1.37723 1.78838 1.45537C1.71024 1.53351 1.66634 1.63949 1.66634 1.75V8.83333H1.24967C1.13917 8.83333 1.03319 8.87723 0.955047 8.95537C0.876906 9.03351 0.833008 9.13949 0.833008 9.25C0.833008 9.36051 0.876906 9.46649 0.955047 9.54463C1.03319 9.62277 1.13917 9.66667 1.24967 9.66667H8.74967C8.86018 9.66667 8.96616 9.62277 9.0443 9.54463C9.12244 9.46649 9.16634 9.36051 9.16634 9.25C9.16634 9.13949 9.12244 9.03351 9.0443 8.95537C8.96616 8.87723 8.86018 8.83333 8.74967 8.83333ZM5.41634 8.83333H4.58301V7.16667H5.41634V8.83333ZM7.49967 8.83333H6.24967V6.75C6.24967 6.63949 6.20578 6.53351 6.12764 6.45537C6.0495 6.37723 5.94351 6.33333 5.83301 6.33333H4.16634C4.05583 6.33333 3.94985 6.37723 3.87171 6.45537C3.79357 6.53351 3.74967 6.63949 3.74967 6.75V8.83333H2.49967V2.16667H7.49967V8.83333Z" fill="#757575"/>
</svg>
