<svg width="10" height="11" viewBox="0 0 10 11" fill="none" xmlns="http://www.w3.org/2000/svg">
<g clip-path="url(#clip0_1933_3838)">
<path d="M4.99967 8.41666C5.08208 8.41666 5.16264 8.39223 5.23116 8.34644C5.29968 8.30066 5.35309 8.23558 5.38462 8.15945C5.41616 8.08331 5.42441 7.99953 5.40834 7.91871C5.39226 7.83788 5.35257 7.76364 5.2943 7.70537C5.23603 7.6471 5.16179 7.60741 5.08096 7.59134C5.00014 7.57526 4.91636 7.58351 4.84022 7.61505C4.76409 7.64658 4.69901 7.69999 4.65323 7.76851C4.60745 7.83703 4.58301 7.91759 4.58301 8C4.58301 8.1105 4.62691 8.21648 4.70505 8.29462C4.78319 8.37277 4.88917 8.41666 4.99967 8.41666ZM7.08301 8.41666C7.16542 8.41666 7.24598 8.39223 7.3145 8.34644C7.38302 8.30066 7.43642 8.23558 7.46796 8.15945C7.49949 8.08331 7.50775 7.99953 7.49167 7.91871C7.47559 7.83788 7.43591 7.76364 7.37764 7.70537C7.31936 7.6471 7.24512 7.60741 7.1643 7.59134C7.08347 7.57526 6.99969 7.58351 6.92356 7.61505C6.84742 7.64658 6.78235 7.69999 6.73656 7.76851C6.69078 7.83703 6.66634 7.91759 6.66634 8C6.66634 8.1105 6.71024 8.21648 6.78838 8.29462C6.86652 8.37277 6.9725 8.41666 7.08301 8.41666ZM7.08301 6.75C7.16542 6.75 7.24598 6.72556 7.3145 6.67978C7.38302 6.63399 7.43642 6.56892 7.46796 6.49278C7.49949 6.41665 7.50775 6.33287 7.49167 6.25204C7.47559 6.17122 7.43591 6.09697 7.37764 6.0387C7.31936 5.98043 7.24512 5.94075 7.1643 5.92467C7.08347 5.90859 6.99969 5.91684 6.92356 5.94838C6.84742 5.97992 6.78235 6.03332 6.73656 6.10184C6.69078 6.17036 6.66634 6.25092 6.66634 6.33333C6.66634 6.44384 6.71024 6.54982 6.78838 6.62796C6.86652 6.7061 6.9725 6.75 7.08301 6.75ZM4.99967 6.75C5.08208 6.75 5.16264 6.72556 5.23116 6.67978C5.29968 6.63399 5.35309 6.56892 5.38462 6.49278C5.41616 6.41665 5.42441 6.33287 5.40834 6.25204C5.39226 6.17122 5.35257 6.09697 5.2943 6.0387C5.23603 5.98043 5.16179 5.94075 5.08096 5.92467C5.00014 5.90859 4.91636 5.91684 4.84022 5.94838C4.76409 5.97992 4.69901 6.03332 4.65323 6.10184C4.60745 6.17036 4.58301 6.25092 4.58301 6.33333C4.58301 6.44384 4.62691 6.54982 4.70505 6.62796C4.78319 6.7061 4.88917 6.75 4.99967 6.75ZM7.91634 1.75H7.49967V1.33333C7.49967 1.22282 7.45578 1.11684 7.37764 1.0387C7.2995 0.960563 7.19351 0.916664 7.08301 0.916664C6.9725 0.916664 6.86652 0.960563 6.78838 1.0387C6.71024 1.11684 6.66634 1.22282 6.66634 1.33333V1.75H3.33301V1.33333C3.33301 1.22282 3.28911 1.11684 3.21097 1.0387C3.13283 0.960563 3.02685 0.916664 2.91634 0.916664C2.80583 0.916664 2.69985 0.960563 2.62171 1.0387C2.54357 1.11684 2.49967 1.22282 2.49967 1.33333V1.75H2.08301C1.75149 1.75 1.43354 1.88169 1.19912 2.11611C0.964704 2.35053 0.833008 2.66848 0.833008 3V8.83333C0.833008 9.16485 0.964704 9.48279 1.19912 9.71721C1.43354 9.95163 1.75149 10.0833 2.08301 10.0833H7.91634C8.24786 10.0833 8.5658 9.95163 8.80023 9.71721C9.03465 9.48279 9.16634 9.16485 9.16634 8.83333V3C9.16634 2.66848 9.03465 2.35053 8.80023 2.11611C8.5658 1.88169 8.24786 1.75 7.91634 1.75ZM8.33301 8.83333C8.33301 8.94384 8.28911 9.04982 8.21097 9.12796C8.13283 9.2061 8.02685 9.25 7.91634 9.25H2.08301C1.9725 9.25 1.86652 9.2061 1.78838 9.12796C1.71024 9.04982 1.66634 8.94384 1.66634 8.83333V5.08333H8.33301V8.83333ZM8.33301 4.25H1.66634V3C1.66634 2.88949 1.71024 2.78351 1.78838 2.70537C1.86652 2.62723 1.9725 2.58333 2.08301 2.58333H2.49967V3C2.49967 3.1105 2.54357 3.21648 2.62171 3.29463C2.69985 3.37277 2.80583 3.41666 2.91634 3.41666C3.02685 3.41666 3.13283 3.37277 3.21097 3.29463C3.28911 3.21648 3.33301 3.1105 3.33301 3V2.58333H6.66634V3C6.66634 3.1105 6.71024 3.21648 6.78838 3.29463C6.86652 3.37277 6.9725 3.41666 7.08301 3.41666C7.19351 3.41666 7.2995 3.37277 7.37764 3.29463C7.45578 3.21648 7.49967 3.1105 7.49967 3V2.58333H7.91634C8.02685 2.58333 8.13283 2.62723 8.21097 2.70537C8.28911 2.78351 8.33301 2.88949 8.33301 3V4.25ZM2.91634 6.75C2.99875 6.75 3.07931 6.72556 3.14783 6.67978C3.21635 6.63399 3.26975 6.56892 3.30129 6.49278C3.33283 6.41665 3.34108 6.33287 3.325 6.25204C3.30892 6.17122 3.26924 6.09697 3.21097 6.0387C3.1527 5.98043 3.07845 5.94075 2.99763 5.92467C2.9168 5.90859 2.83303 5.91684 2.75689 5.94838C2.68075 5.97992 2.61568 6.03332 2.5699 6.10184C2.52411 6.17036 2.49967 6.25092 2.49967 6.33333C2.49967 6.44384 2.54357 6.54982 2.62171 6.62796C2.69985 6.7061 2.80583 6.75 2.91634 6.75ZM2.91634 8.41666C2.99875 8.41666 3.07931 8.39223 3.14783 8.34644C3.21635 8.30066 3.26975 8.23558 3.30129 8.15945C3.33283 8.08331 3.34108 7.99953 3.325 7.91871C3.30892 7.83788 3.26924 7.76364 3.21097 7.70537C3.1527 7.6471 3.07845 7.60741 2.99763 7.59134C2.9168 7.57526 2.83303 7.58351 2.75689 7.61505C2.68075 7.64658 2.61568 7.69999 2.5699 7.76851C2.52411 7.83703 2.49967 7.91759 2.49967 8C2.49967 8.1105 2.54357 8.21648 2.62171 8.29462C2.69985 8.37277 2.80583 8.41666 2.91634 8.41666Z" fill="#757575"/>
</g>
<defs>
<clipPath id="clip0_1933_3838">
<rect width="10" height="10" fill="white" transform="translate(0 0.5)"/>
</clipPath>
</defs>
</svg>
