<svg width="26" height="26" viewBox="0 0 26 26" fill="none" xmlns="http://www.w3.org/2000/svg">
<path d="M11.191 17.9756H4.36523" stroke="#00C7FE" stroke-width="2" stroke-linecap="round" stroke-linejoin="round"/>
<path d="M14.2355 7.47539H21.0613" stroke="#00C7FE" stroke-width="2" stroke-linecap="round" stroke-linejoin="round"/>
<path fill-rule="evenodd" clip-rule="evenodd" d="M9.45349 7.41677C9.45349 6.01315 8.30715 4.875 6.89342 4.875C5.47968 4.875 4.33334 6.01315 4.33334 7.41677C4.33334 8.8204 5.47968 9.95855 6.89342 9.95855C8.30715 9.95855 9.45349 8.8204 9.45349 7.41677Z" stroke="#00C7FE" stroke-width="2" stroke-linecap="round" stroke-linejoin="round"/>
<path fill-rule="evenodd" clip-rule="evenodd" d="M21.6667 17.9333C21.6667 16.5296 20.5212 15.3915 19.1075 15.3915C17.6929 15.3915 16.5465 16.5296 16.5465 17.9333C16.5465 19.3369 17.6929 20.475 19.1075 20.475C20.5212 20.475 21.6667 19.3369 21.6667 17.9333Z" stroke="#00C7FE" stroke-width="2" stroke-linecap="round" stroke-linejoin="round"/>
</svg>
