<svg width="44" height="44" viewBox="0 0 44 44" fill="none" xmlns="http://www.w3.org/2000/svg">
<rect width="44" height="44" rx="10" fill="#37CF76" fill-opacity="0.1"/>
<path d="M25.0499 30.8141L26.9499 32.7141L30.7499 28.9141" stroke="#37CF76" stroke-width="1.5" stroke-linecap="round" stroke-linejoin="round"/>
<path d="M22.2 20.5924C22.075 20.5799 21.925 20.5799 21.7875 20.5924C18.8125 20.4924 16.45 18.0549 16.45 15.0549C16.4375 11.9924 18.925 9.50488 21.9875 9.50488C25.05 9.50488 27.5375 11.9924 27.5375 15.0549C27.5375 18.0549 25.1625 20.4924 22.2 20.5924Z" stroke="#37CF76" stroke-width="1.5" stroke-linecap="round" stroke-linejoin="round"/>
<path d="M21.9875 34.267C19.7125 34.267 17.45 33.692 15.725 32.542C12.7 30.517 12.7 27.217 15.725 25.2045C19.1625 22.9045 24.8 22.9045 28.2375 25.2045" stroke="#37CF76" stroke-width="1.5" stroke-linecap="round" stroke-linejoin="round"/>
</svg>
