<svg width="54" height="95" viewBox="0 0 54 95" fill="none" xmlns="http://www.w3.org/2000/svg">
<path d="M26.8053 94.7145L31.9176 73.9588C34.1532 72.876 36.8706 71.2933 39.6541 68.9827C43.9602 65.409 46.6632 61.557 48.2768 58.7925C37.8933 50.7491 27.6763 42.9723 17.2929 34.9291C16.4297 33.2809 14.437 32.4368 13.2408 33.0608C12.7789 33.302 12.4772 33.6877 12.2799 34.0795C11.981 34.6735 11.8967 35.3529 12.0199 36.0064C12.1809 36.858 12.3598 37.901 12.5251 39.0934C12.957 42.2031 13.0533 44.5694 13.0706 45.0235C13.156 47.2854 13.1156 50.8218 12.3719 55.3331C12.3292 56.3642 12.3822 57.8728 12.8661 59.6104C13.3421 61.3204 14.0599 62.6227 14.6213 63.4787C14.2803 64.2853 13.9396 65.092 13.5989 65.8983L0.630737 94.7145H26.8053Z" fill="#FBDEB9"/>
<path d="M23.2438 94.7142L30.6395 72.9872C32.4031 72.3095 34.3525 71.4114 36.3824 70.2095C41.1808 67.3686 44.5156 63.9628 46.6834 61.2974C45.124 63.5373 42.7802 66.4018 39.4155 69.153C36.6972 71.3759 34.0666 72.9078 31.9176 73.9586C30.2137 80.8771 28.5095 87.7957 26.8053 94.7142H23.2438Z" fill="#F3CCA1"/>
<path d="M52.5815 26.278L49.4025 29.8678C48.2554 31.1632 46.2751 31.2832 44.98 30.1361C43.6847 28.9887 43.5644 27.0088 44.7117 25.7134L47.8907 22.1238C49.0381 20.8285 51.0181 20.7082 52.3135 21.8555C53.6088 23.0026 53.7289 24.9829 52.5815 26.278Z" fill="#FBDEB9"/>
<path d="M46.1329 63.4514H20.0604C18.5308 63.4514 17.2908 62.2114 17.2908 60.6818V7.03866C17.2908 5.50902 18.5308 4.26904 20.0604 4.26904H46.1329C47.6625 4.26904 48.9025 5.50902 48.9025 7.03866V60.6818C48.9025 62.2114 47.6625 63.4514 46.1329 63.4514Z" fill="#2C2E31"/>
<path d="M46.3828 62.1315H19.8106C19.1211 62.1315 18.562 61.5724 18.562 60.8829V7.5085C18.562 6.44834 19.4215 5.58887 20.4814 5.58887H46.3828C47.0726 5.58887 47.6317 6.14804 47.6317 6.83773V60.8829C47.6317 61.5724 47.0726 62.1315 46.3828 62.1315Z" fill="#E9EAEB"/>
<path d="M39.373 8.44044H26.8206C26.3541 8.44044 25.9758 8.06227 25.9758 7.59579V5.40967H40.2174V7.59579C40.2174 8.06227 39.8395 8.44044 39.373 8.44044Z" fill="#6A1B4D"/>
<path d="M35.6914 7.03908H30.5936C30.3625 7.03908 30.1753 6.85179 30.1753 6.62076V6.44714C30.1753 6.2161 30.3625 6.02881 30.5936 6.02881H35.6914C35.9222 6.02881 36.1098 6.2161 36.1098 6.44714V6.62076C36.1098 6.85179 35.9222 7.03908 35.6914 7.03908Z" fill="white"/>
<path d="M21.9204 63.4514H20.0628C18.5328 63.4514 17.2928 62.2112 17.2928 60.6815V7.03915C17.2928 5.50929 18.5328 4.26904 20.0628 4.26904H43.0811L42.6092 5.58891H40.2175V5.40969H25.9759V5.58891H20.4814C19.4214 5.58891 18.562 6.44836 18.562 7.50852V60.8829C18.562 61.5724 19.1211 62.1315 19.8106 62.1315H22.3924L21.9204 63.4514Z" fill="#2B2F31"/>
<path d="M22.3924 62.1315H19.8106C19.1211 62.1315 18.562 61.5724 18.562 60.8829V7.5085C18.562 6.44834 19.4215 5.58887 20.4814 5.58887H25.9759V7.5958C25.9759 8.06228 26.3542 8.44048 26.8207 8.44048H39.3731C39.8396 8.44048 40.2175 8.06228 40.2175 7.5958V5.58887H42.6092L22.3924 62.1315Z" fill="white"/>
<path d="M30.5936 6.02882C30.3625 6.02882 30.1753 6.21612 30.1753 6.44715V6.62077C30.1753 6.8518 30.3625 7.0391 30.5936 7.0391H35.6914C35.9222 7.0391 36.1097 6.8518 36.1097 6.62077V6.44715C36.1097 6.21612 35.9222 6.02882 35.6914 6.02882H30.5936ZM39.373 8.44044H26.8206C26.3541 8.44044 25.9758 8.06227 25.9758 7.59579V5.58886V5.40967H40.2174V5.58886V7.59579C40.2174 8.06227 39.8395 8.44044 39.373 8.44044Z" fill="#2C2F31"/>
<path d="M35.6914 7.03908H30.5936C30.3625 7.03908 30.1753 6.85179 30.1753 6.62076V6.44714C30.1753 6.2161 30.3625 6.02881 30.5936 6.02881H35.6914C35.9222 6.02881 36.1098 6.2161 36.1098 6.44714V6.62076C36.1098 6.85179 35.9222 7.03908 35.6914 7.03908Z" fill="#F3C9F1"/>
<path d="M52.5815 35.7303L49.4025 39.3198C48.2554 40.6152 46.2751 40.7355 44.98 39.5881C43.6847 38.4411 43.5644 36.4608 44.7117 35.1657L47.8907 31.5759C49.0381 30.2805 51.0181 30.1605 52.3135 31.3076V31.3079C53.6088 32.4549 53.7289 34.4349 52.5815 35.7303Z" fill="#FBDEB9"/>
<path d="M52.5815 44.8402L49.4025 48.4297C48.2554 49.7251 46.2751 49.8451 44.98 48.698C43.6847 47.5509 43.5644 45.5707 44.7117 44.2756L47.8907 40.6857C49.0381 39.3904 51.0181 39.2703 52.3135 40.4174C53.6088 41.5648 53.7289 43.5448 52.5815 44.8402Z" fill="#FBDEB9"/>
<path d="M51.7195 54.2748L49.6487 56.6131C48.7119 57.6708 47.0951 57.7689 46.0375 56.8324L45.191 56.0826C44.1334 55.1458 44.0353 53.5291 44.9718 52.4714L47.0429 50.1331C47.9794 49.0755 49.5961 48.9774 50.6538 49.9141L51.5005 50.664C52.5582 51.6004 52.6563 53.2172 51.7195 54.2748Z" fill="#FBDEB9"/>
<path d="M47.4085 2.78387C47.2172 2.78387 47.0623 2.62886 47.0623 2.43767V0.346202C47.0623 0.154983 47.2172 0 47.4085 0C47.5997 0 47.7547 0.154983 47.7547 0.346202V2.43767C47.7547 2.62886 47.5997 2.78387 47.4085 2.78387Z" fill="#FCD3D2"/>
<path d="M49.6668 3.81238C49.5782 3.81238 49.4896 3.77859 49.4218 3.71097C49.2868 3.57578 49.2868 3.35657 49.4218 3.22138L50.9007 1.74246C50.9685 1.67487 51.057 1.64111 51.1456 1.64111C51.2342 1.64111 51.3228 1.67487 51.3903 1.74246C51.5256 1.87768 51.5256 2.09692 51.3903 2.23211L49.9114 3.71097C49.8439 3.77859 49.7553 3.81238 49.6668 3.81238Z" fill="#FCD3D2"/>
<path d="M52.7216 6.03078H50.6303C50.439 6.03078 50.2841 5.87577 50.2841 5.68458C50.2841 5.49336 50.439 5.33838 50.6303 5.33838H52.7216C52.9129 5.33838 53.0678 5.49336 53.0678 5.68458C53.0678 5.87577 52.9129 6.03078 52.7216 6.03078Z" fill="#FCD3D2"/>
<path d="M45.3567 19.2603V28.9442H20.4869V19.2603H45.3567Z" fill="#0B69FF"/>
<path d="M20.4869 28.1875V32.8025L24.8372 28.3892" fill="#0B69FF"/>
<path d="M27.4536 22.314C28.4437 22.314 29.2476 23.1178 29.2476 24.1079C29.2476 25.098 28.4437 25.9019 27.4536 25.9019C26.4635 25.9019 25.6597 25.098 25.6597 24.1079C25.6597 23.1178 26.4635 22.314 27.4536 22.314Z" fill="#F5F5F5"/>
<path d="M33.6416 22.355C34.6317 22.355 35.4356 23.1589 35.4356 24.1489C35.4356 25.139 34.6317 25.9429 33.6416 25.9429C32.6515 25.9429 31.8477 25.139 31.8477 24.1489C31.8477 23.1589 32.6515 22.355 33.6416 22.355Z" fill="#F5F5F5"/>
<path d="M39.8297 22.9326C40.8198 22.9326 41.6237 23.7365 41.6237 24.7266C41.6237 25.7167 40.8198 26.5205 39.8297 26.5205C38.8396 26.5205 38.0358 25.7167 38.0358 24.7266C38.0358 23.7365 38.8396 22.9326 39.8297 22.9326Z" fill="#F5F5F5"/>
</svg>
