<svg width="22" height="22" viewBox="0 0 22 22" fill="none" xmlns="http://www.w3.org/2000/svg">
<path d="M9.09091 3.8219C9.71667 3.67543 10.3573 3.60221 11 3.60372C17.3636 3.60372 21 10.8764 21 10.8764C20.4482 11.9088 19.7901 12.8808 19.0364 13.7764M12.9273 12.8037C12.6776 13.0717 12.3765 13.2866 12.042 13.4357C11.7074 13.5847 11.3463 13.6649 10.9801 13.6713C10.6139 13.6778 10.2501 13.6104 9.91055 13.4733C9.57096 13.3361 9.26247 13.1319 9.0035 12.873C8.74452 12.614 8.54036 12.3055 8.40319 11.9659C8.26602 11.6263 8.19866 11.2626 8.20512 10.8964C8.21158 10.5302 8.29174 10.169 8.4408 9.83449C8.58986 9.49995 8.80478 9.19886 9.07273 8.94918M16.4 16.2764C14.846 17.461 12.9537 18.1172 11 18.1492C4.63636 18.1492 1 10.8764 1 10.8764C2.13081 8.76908 3.69921 6.92791 5.6 5.47645L16.4 16.2764Z" stroke="#333333" stroke-linecap="round" stroke-linejoin="round"/>
<path d="M1 0.876404L21 20.8764" stroke="#00223E" stroke-opacity="0.3" stroke-linecap="round" stroke-linejoin="round"/>
</svg>
