<svg width="44" height="44" viewBox="0 0 44 44" fill="none" xmlns="http://www.w3.org/2000/svg">
<rect width="44" height="44" rx="10" fill="#37CF76" fill-opacity="0.1"/>
<path d="M34.4625 29.9125C34.4625 30.3625 34.3625 30.825 34.15 31.275C33.9375 31.725 33.6625 32.15 33.3 32.55C32.6875 33.225 32.0125 33.7125 31.25 34.025C30.5 34.3375 29.6875 34.5 28.8125 34.5C27.5375 34.5 26.175 34.2 24.7375 33.5875C23.3 32.975 21.8625 32.15 20.4375 31.1125C19 30.0625 17.6375 28.9 16.3375 27.6125C15.05 26.3125 13.8875 24.95 12.85 23.525C11.825 22.1 11 20.675 10.4 19.2625C9.8 17.8375 9.5 16.475 9.5 15.175C9.5 14.325 9.65 13.5125 9.95 12.7625C10.25 12 10.725 11.3 11.3875 10.675C12.1875 9.8875 13.0625 9.5 13.9875 9.5C14.3375 9.5 14.6875 9.575 15 9.725C15.325 9.875 15.6125 10.1 15.8375 10.425L18.7375 14.5125C18.9625 14.825 19.125 15.1125 19.2375 15.3875C19.35 15.65 19.4125 15.9125 19.4125 16.15C19.4125 16.45 19.325 16.75 19.15 17.0375C18.9875 17.325 18.75 17.625 18.45 17.925L17.5 18.9125C17.3625 19.05 17.3 19.2125 17.3 19.4125C17.3 19.5125 17.3125 19.6 17.3375 19.7C17.375 19.8 17.4125 19.875 17.4375 19.95C17.6625 20.3625 18.05 20.9 18.6 21.55C19.1625 22.2 19.7625 22.8625 20.4125 23.525C21.0875 24.1875 21.7375 24.8 22.4 25.3625C23.05 25.9125 23.5875 26.2875 24.0125 26.5125C24.075 26.5375 24.15 26.575 24.2375 26.6125C24.3375 26.65 24.4375 26.6625 24.55 26.6625C24.7625 26.6625 24.925 26.5875 25.0625 26.45L26.0125 25.5125C26.325 25.2 26.625 24.9625 26.9125 24.8125C27.2 24.6375 27.4875 24.55 27.8 24.55C28.0375 24.55 28.2875 24.6 28.5625 24.7125C28.8375 24.825 29.125 24.9875 29.4375 25.2L33.575 28.1375C33.9 28.3625 34.125 28.625 34.2625 28.9375C34.3875 29.25 34.4625 29.5625 34.4625 29.9125Z" stroke="#37CF76" stroke-width="1.5" stroke-miterlimit="10"/>
<path d="M27.25 16.75H33.25M27.25 16.75V10.75V16.75Z" stroke="#37CF76" stroke-width="1.5" stroke-linecap="round" stroke-linejoin="round"/>
</svg>
