<svg width="10" height="11" viewBox="0 0 10 11" fill="none" xmlns="http://www.w3.org/2000/svg">
<path d="M7.83261 2.11497C7.082 1.40107 6.06397 1 5.00245 1C3.94093 1 2.9229 1.40107 2.17229 2.11497C1.42169 2.82888 1 3.79714 1 4.80675C1 5.81636 1.42169 6.78463 2.17229 7.49853L4.65811 9.8673C4.70196 9.90935 4.75413 9.94272 4.81161 9.9655C4.86909 9.98827 4.93075 10 4.99302 10C5.05528 10 5.11694 9.98827 5.17442 9.9655C5.2319 9.94272 5.28407 9.90935 5.32792 9.8673L7.83261 7.4761C8.58008 6.76517 9 5.80094 9 4.79554C9 3.79013 8.58008 2.82591 7.83261 2.11497ZM7.15809 6.83456L5.00245 8.89377L2.84681 6.83456C2.42094 6.42914 2.13101 5.91273 2.01366 5.35062C1.89631 4.78851 1.95682 4.20592 2.18753 3.67651C2.41824 3.1471 2.8088 2.69462 3.30984 2.37629C3.81088 2.05795 4.3999 1.88805 5.00245 1.88805C5.605 1.88805 6.19402 2.05795 6.69506 2.37629C7.1961 2.69462 7.58666 3.1471 7.81737 3.67651C8.04808 4.20592 8.10859 4.78851 7.99124 5.35062C7.87389 5.91273 7.58396 6.42914 7.15809 6.83456ZM3.58737 3.42946C3.20658 3.79275 2.99275 4.2848 2.99275 4.79778C2.99275 5.31076 3.20658 5.80281 3.58737 6.1661C3.87027 6.43563 4.23057 6.6197 4.62304 6.69522C5.01552 6.77073 5.42271 6.73433 5.79351 6.59057C6.16432 6.44682 6.48224 6.20212 6.70738 5.88716C6.93251 5.57221 7.05485 5.20104 7.05903 4.82021C7.06116 4.56593 7.00966 4.31382 6.90757 4.0788C6.80549 3.84377 6.6549 3.6306 6.4647 3.45189C6.27775 3.27 6.05483 3.12508 5.80877 3.02545C5.56271 2.92582 5.29836 2.87346 5.03094 2.87137C4.76352 2.86929 4.4983 2.91752 4.25056 3.0133C4.00281 3.10908 3.77743 3.25051 3.58737 3.42946ZM5.79961 5.52905C5.62086 5.70165 5.38462 5.80984 5.13128 5.83512C4.87794 5.8604 4.62324 5.8012 4.41071 5.66764C4.19819 5.53408 4.04104 5.33445 3.96614 5.10288C3.89124 4.87132 3.90324 4.6222 4.00008 4.39812C4.09692 4.17404 4.2726 3.98891 4.49707 3.87438C4.72154 3.75985 4.98087 3.72304 5.23072 3.77024C5.48057 3.81744 5.70542 3.94572 5.86683 4.13315C6.02824 4.32057 6.1162 4.5555 6.11565 4.79778C6.10878 5.0747 5.98663 5.33772 5.77603 5.52905H5.79961Z" fill="#757575"/>
</svg>
