<svg width="12" height="13" viewBox="0 0 12 13" fill="none" xmlns="http://www.w3.org/2000/svg">
<path d="M9.5533 1.79988C8.55874 0.805321 7.20982 0.246582 5.8033 0.246582C4.39678 0.246582 3.04786 0.805321 2.0533 1.79988C1.05874 2.79444 0.5 4.14336 0.5 5.54988C0.5 6.95641 1.05874 8.30532 2.0533 9.29988L5.34705 12.5999C5.40515 12.6585 5.47428 12.705 5.55044 12.7367C5.6266 12.7684 5.70829 12.7848 5.7908 12.7848C5.87331 12.7848 5.955 12.7684 6.03116 12.7367C6.10732 12.705 6.17645 12.6585 6.23455 12.5999L9.5533 9.26863C10.5437 8.27821 11.1001 6.93492 11.1001 5.53426C11.1001 4.1336 10.5437 2.79031 9.5533 1.79988ZM8.65955 8.37488L5.8033 11.2436L2.94705 8.37488C2.38277 7.81008 1.9986 7.09066 1.84311 6.30756C1.68762 5.52447 1.76779 4.71285 2.07349 3.97531C2.37919 3.23777 2.89669 2.60741 3.56057 2.16393C4.22445 1.72045 5.00492 1.48375 5.8033 1.48375C6.60169 1.48375 7.38215 1.72045 8.04603 2.16393C8.70992 2.60741 9.22741 3.23777 9.53311 3.97531C9.83881 4.71285 9.91898 5.52447 9.76349 6.30756C9.608 7.09066 9.22383 7.81008 8.65955 8.37488ZM3.9283 3.63113C3.42375 4.13724 3.14042 4.82274 3.14042 5.53738C3.14042 6.25203 3.42375 6.93752 3.9283 7.44363C4.30315 7.81912 4.78054 8.07556 5.30058 8.18076C5.82062 8.28596 6.36015 8.23525 6.85147 8.03498C7.3428 7.83471 7.76404 7.49381 8.06235 7.05504C8.36066 6.61627 8.52276 6.09918 8.5283 5.56863C8.53112 5.21439 8.46288 4.86317 8.32762 4.53575C8.19235 4.20833 7.99282 3.91136 7.7408 3.66238C7.4931 3.40899 7.19773 3.20709 6.87169 3.0683C6.54565 2.9295 6.19539 2.85655 5.84105 2.85365C5.48671 2.85075 5.1353 2.91794 4.80703 3.05138C4.47877 3.18481 4.18013 3.38184 3.9283 3.63113ZM6.85955 6.55613C6.6227 6.7966 6.30968 6.94732 5.97401 6.98254C5.63833 7.01776 5.30084 6.93528 5.01924 6.74921C4.73764 6.56314 4.52942 6.28503 4.43018 5.96243C4.33094 5.63984 4.34683 5.29278 4.47515 4.9806C4.60347 4.66843 4.83624 4.41052 5.13367 4.25097C5.43109 4.09142 5.77471 4.04014 6.10576 4.10589C6.43681 4.17165 6.73475 4.35036 6.94862 4.61146C7.16249 4.87257 7.27903 5.19986 7.2783 5.53738C7.26921 5.92318 7.10736 6.28959 6.8283 6.55613H6.85955Z" fill="#00223E"/>
</svg>
