<svg width="44" height="44" viewBox="0 0 44 44" fill="none" xmlns="http://www.w3.org/2000/svg">
<rect width="44" height="44" rx="10" fill="#00C7FE" fill-opacity="0.1"/>
<path d="M22 29.75C24.7614 29.75 27 27.5114 27 24.75C27 21.9886 24.7614 19.75 22 19.75C19.2386 19.75 17 21.9886 17 24.75C17 27.5114 19.2386 29.75 22 29.75Z" stroke="#00C7FE" stroke-width="1.5" stroke-miterlimit="10" stroke-linecap="round" stroke-linejoin="round"/>
<path d="M20.0498 24.8749L20.8623 25.6874C21.0998 25.9249 21.4873 25.9249 21.7248 25.6999L23.9498 23.6499" stroke="#00C7FE" stroke-width="1.5" stroke-linecap="round" stroke-linejoin="round"/>
<path d="M17 34.5H27C32.025 34.5 32.925 32.4875 33.1875 30.0375L34.125 20.0375C34.4625 16.9875 33.5875 14.5 28.25 14.5H15.75C10.4125 14.5 9.53753 16.9875 9.87503 20.0375L10.8125 30.0375C11.075 32.4875 11.975 34.5 17 34.5Z" stroke="#00C7FE" stroke-width="1.5" stroke-miterlimit="10" stroke-linecap="round" stroke-linejoin="round"/>
<path d="M17 14.5V13.5C17 11.2875 17 9.5 21 9.5H23C27 9.5 27 11.2875 27 13.5V14.5" stroke="#00C7FE" stroke-width="1.5" stroke-miterlimit="10" stroke-linecap="round" stroke-linejoin="round"/>
<path d="M34.0625 20.75C31.9 22.325 29.5 23.425 27.0125 24.05" stroke="#00C7FE" stroke-width="1.5" stroke-miterlimit="10" stroke-linecap="round" stroke-linejoin="round"/>
<path d="M10.2751 21.0874C12.3626 22.5124 14.6376 23.5249 17.0001 24.0999" stroke="#00C7FE" stroke-width="1.5" stroke-miterlimit="10" stroke-linecap="round" stroke-linejoin="round"/>
</svg>
