<svg width="76" height="70" viewBox="0 0 76 70" fill="none" xmlns="http://www.w3.org/2000/svg">
<path d="M43.7273 49.9813L38.0021 53.3819L30.6544 57.7417L24.9248 54.3411V9.16977L7.64309 19.4351L0.299805 23.795V15.0708L7.64309 10.7109L24.9248 0.4501L25.6852 0L32.2725 3.91433V49.9813L38.0021 53.3819L43.7273 49.9813Z" fill="#00223E"/>
<path d="M75.7 15.0708V23.795L68.3523 19.4351L51.0706 9.16977V54.3411L45.3454 57.7417L38.2939 61.9288L38.0021 62.1061L25.6852 69.4164L0.299805 54.3411V23.795L7.64309 19.4351V49.9813L25.6852 60.6968L30.6544 57.7417L38.0021 53.3819L43.7273 49.9813V3.91433L50.3146 0L75.7 15.0708Z" fill="#00C7FE"/>
<path d="M75.7001 23.7949V54.341L50.3147 69.4163L38.0022 62.106L38.294 61.9287L45.3455 57.7416L50.3147 60.6966L68.3524 49.9812V19.4351L75.7001 23.7949Z" fill="#00223E"/>
</svg>
 