<svg width="61" height="88" viewBox="0 0 61 88" fill="none" xmlns="http://www.w3.org/2000/svg">
<path d="M53.2966 44.2991C53.2966 55.2382 44.4305 64.1043 33.4915 64.1043C22.5525 64.1043 13.6851 55.2382 13.6851 44.2991V24.8091H53.2966V44.2991Z" fill="#00C7FE"/>
<path d="M22.7239 18.4776C22.7239 18.4776 22.6855 14.725 22.6855 13.804C22.6855 7.8381 27.5235 3 33.4894 3C39.4553 3 44.2922 7.8381 44.2922 13.804V24.8347" stroke="#CED3F8" stroke-width="5.73" stroke-linejoin="round"/>
<path d="M38.0304 39.7592C38.0304 42.2662 35.9985 44.2994 33.4914 44.2994C30.9844 44.2994 28.9512 42.2662 28.9512 39.7592C28.9512 37.2521 30.9844 35.2202 33.4914 35.2202C35.9985 35.2202 38.0304 37.2521 38.0304 39.7592Z" fill="white"/>
<path d="M33.4915 43.0601V48.2688" stroke="white" stroke-width="3.82" stroke-linecap="round" stroke-linejoin="round"/>
<path d="M11.485 13.8051C11.485 13.8051 8.4882 10.8096 6.5331 8.85449M9.28373 22.6077C9.28373 22.6077 5.28883 22.6077 2.68115 22.6077H9.28373Z" stroke="#FCBA06" stroke-width="3.82" stroke-linecap="round" stroke-linejoin="round"/>
<path d="M16.8711 29.8205C16.8711 28.8118 17.6891 27.9951 18.6978 27.9951C19.7064 27.9951 20.5232 28.8118 20.5232 29.8205C20.5232 30.8292 19.7064 31.6472 18.6978 31.6472C17.6891 31.6472 16.8711 30.8292 16.8711 29.8205ZM50.1104 29.8205C50.1104 28.8118 49.2936 27.9951 48.285 27.9951C47.2763 27.9951 46.4583 28.8118 46.4583 29.8205C46.4583 30.8292 47.2763 31.6472 48.285 31.6472C49.2936 31.6472 50.1104 30.8292 50.1104 29.8205Z" fill="#CED3F8"/>
<path d="M7.31909 79.807L15.4823 84.5196M55.2373 86.8764V77.4502V86.8764ZM59.3189 79.807L51.1558 84.5196L59.3189 79.807ZM51.1558 79.807L59.3189 84.5196L51.1558 79.807ZM40.4804 86.8764V77.4502V86.8764ZM44.562 79.807L36.3989 84.5196L44.562 79.807ZM36.3989 79.807L44.562 84.5196L36.3989 79.807ZM26.1576 86.8764V77.4502V86.8764ZM30.2392 79.807L22.076 84.5196L30.2392 79.807ZM22.076 79.807L30.2392 84.5196L22.076 79.807ZM11.4007 86.8764V77.4502V86.8764ZM15.4823 79.807L7.31909 84.5196L15.4823 79.807Z" stroke="#D3D3D3" stroke-width="2" stroke-linecap="round" stroke-linejoin="round"/>
<path d="M51.1558 79.807L59.3189 84.5196M55.2373 86.8764V77.4502V86.8764ZM59.3189 79.807L51.1558 84.5196L59.3189 79.807Z" stroke="#00C7FE" stroke-width="2" stroke-linecap="round" stroke-linejoin="round"/>
<path d="M36.3987 79.807L44.5619 84.5196M40.4803 86.8764V77.4502V86.8764ZM44.5619 79.807L36.3987 84.5196L44.5619 79.807Z" stroke="#00C7FE" stroke-width="2" stroke-linecap="round" stroke-linejoin="round"/>
<path d="M22.0759 79.807L30.2391 84.5196M26.1575 86.8764V77.4502V86.8764ZM30.2391 79.807L22.0759 84.5196L30.2391 79.807Z" stroke="#00C7FE" stroke-width="2" stroke-linecap="round" stroke-linejoin="round"/>
<path d="M7.31909 79.807L15.4823 84.5196M11.4007 86.8764V77.4502V86.8764ZM15.4823 79.807L7.31909 84.5196L15.4823 79.807Z" stroke="#00C7FE" stroke-width="2" stroke-linecap="round" stroke-linejoin="round"/>
</svg>
