<svg width="44" height="44" viewBox="0 0 44 44" fill="none" xmlns="http://www.w3.org/2000/svg">
<rect width="44" height="44" rx="10" fill="#00C7FE" fill-opacity="0.1"/>
<path d="M8.25 34.5H35.75" stroke="#00C7FE" stroke-width="1.5" stroke-miterlimit="10" stroke-linecap="round" stroke-linejoin="round"/>
<path d="M31.7251 34.5125V28.9375" stroke="#00C7FE" stroke-width="1.5" stroke-miterlimit="10" stroke-linecap="round" stroke-linejoin="round"/>
<path d="M31.75 20.6128C30.225 20.6128 29 21.8378 29 23.3628V26.2003C29 27.7253 30.225 28.9503 31.75 28.9503C33.275 28.9503 34.5 27.7253 34.5 26.2003V23.3628C34.5 21.8378 33.275 20.6128 31.75 20.6128Z" stroke="#00C7FE" stroke-width="1.5" stroke-miterlimit="10" stroke-linecap="round" stroke-linejoin="round"/>
<path d="M9.625 34.4997V14.5372C9.625 12.0247 10.8751 10.7622 13.3626 10.7622H21.15C23.6375 10.7622 24.875 12.0247 24.875 14.5372V34.4997" stroke="#00C7FE" stroke-width="1.5" stroke-miterlimit="10" stroke-linecap="round" stroke-linejoin="round"/>
<path d="M14.25 17.3125H20.4375" stroke="#00C7FE" stroke-width="1.5" stroke-miterlimit="10" stroke-linecap="round" stroke-linejoin="round"/>
<path d="M14.25 22H20.4375" stroke="#00C7FE" stroke-width="1.5" stroke-miterlimit="10" stroke-linecap="round" stroke-linejoin="round"/>
<path d="M17.3125 34.5V29.8125" stroke="#00C7FE" stroke-width="1.5" stroke-miterlimit="10" stroke-linecap="round" stroke-linejoin="round"/>
</svg>
