<svg width="44" height="44" viewBox="0 0 44 44" fill="none" xmlns="http://www.w3.org/2000/svg">
<rect width="44" height="44" rx="10" fill="#00C7FE" fill-opacity="0.1"/>
<path d="M17.625 30.75H17C12 30.75 9.5 29.5 9.5 23.25V17C9.5 12 12 9.5 17 9.5H27C32 9.5 34.5 12 34.5 17V23.25C34.5 28.25 32 30.75 27 30.75H26.375C25.9875 30.75 25.6125 30.9375 25.375 31.25L23.5 33.75C22.675 34.85 21.325 34.85 20.5 33.75L18.625 31.25C18.425 30.975 17.9625 30.75 17.625 30.75Z" stroke="#00C7FE" stroke-width="1.5" stroke-miterlimit="10" stroke-linecap="round" stroke-linejoin="round"/>
<path d="M15.75 17H28.25" stroke="#00C7FE" stroke-width="1.5" stroke-linecap="round" stroke-linejoin="round"/>
<path d="M15.75 23.25H23.25" stroke="#00C7FE" stroke-width="1.5" stroke-linecap="round" stroke-linejoin="round"/>
</svg>
