<svg width="44" height="44" viewBox="0 0 44 44" fill="none" xmlns="http://www.w3.org/2000/svg">
<rect width="44" height="44" rx="10" fill="#0057FF" fill-opacity="0.1"/>
<path d="M18.4501 20.5875C18.3251 20.575 18.1751 20.575 18.0376 20.5875C15.0626 20.4875 12.7001 18.05 12.7001 15.05C12.7001 11.9875 15.1751 9.5 18.2501 9.5C21.3126 9.5 23.8001 11.9875 23.8001 15.05C23.7876 18.05 21.4251 20.4875 18.4501 20.5875Z" stroke="#0057FF" stroke-width="1.5" stroke-linecap="round" stroke-linejoin="round"/>
<path d="M27.5126 12C29.9376 12 31.8876 13.9625 31.8876 16.375C31.8876 18.7375 30.0126 20.6625 27.6751 20.75C27.5751 20.7375 27.4626 20.7375 27.3501 20.75" stroke="#0057FF" stroke-width="1.5" stroke-linecap="round" stroke-linejoin="round"/>
<path d="M12.1999 25.2C9.1749 27.225 9.1749 30.525 12.1999 32.5375C15.6374 34.8375 21.2749 34.8375 24.7124 32.5375C27.7374 30.5125 27.7374 27.2125 24.7124 25.2C21.2874 22.9125 15.6499 22.9125 12.1999 25.2Z" stroke="#0057FF" stroke-width="1.5" stroke-linecap="round" stroke-linejoin="round"/>
<path d="M29.9249 32C30.8249 31.8125 31.6749 31.45 32.3749 30.9125C34.3249 29.45 34.3249 27.0375 32.3749 25.575C31.6874 25.05 30.8499 24.7 29.9624 24.5" stroke="#0057FF" stroke-width="1.5" stroke-linecap="round" stroke-linejoin="round"/>
</svg>
