<svg width="13" height="13" viewBox="0 0 13 13" fill="none" xmlns="http://www.w3.org/2000/svg">
<path d="M6.49992 1.08337C5.42861 1.08337 4.38135 1.40106 3.49058 1.99625C2.59982 2.59144 1.90555 3.43741 1.49557 4.42717C1.0856 5.41694 0.978331 6.50605 1.18733 7.55678C1.39634 8.60751 1.91222 9.57267 2.66976 10.3302C3.42729 11.0877 4.39245 11.6036 5.44318 11.8126C6.49391 12.0216 7.58302 11.9144 8.57279 11.5044C9.56256 11.0944 10.4085 10.4001 11.0037 9.50938C11.5989 8.61861 11.9166 7.57136 11.9166 6.50004C11.9166 5.78871 11.7765 5.08435 11.5043 4.42717C11.2321 3.76999 10.8331 3.17286 10.3301 2.66988C9.8271 2.1669 9.22997 1.76791 8.57279 1.49569C7.91561 1.22348 7.21125 1.08337 6.49992 1.08337ZM6.49992 10.8334C5.64287 10.8334 4.80506 10.5792 4.09245 10.1031C3.37984 9.62692 2.82442 8.95015 2.49644 8.15834C2.16846 7.36652 2.08265 6.49523 2.24985 5.65465C2.41705 4.81407 2.82976 4.04194 3.43579 3.43591C4.04182 2.82988 4.81395 2.41717 5.65453 2.24997C6.49511 2.08277 7.3664 2.16858 8.15822 2.49656C8.95003 2.82454 9.6268 3.37996 10.103 4.09257C10.5791 4.80518 10.8333 5.64299 10.8333 6.50004C10.8333 7.64931 10.3767 8.75151 9.56405 9.56417C8.75139 10.3768 7.64919 10.8334 6.49992 10.8334ZM8.17909 6.84129L7.04159 6.18587V3.79171C7.04159 3.64805 6.98452 3.51027 6.88294 3.40869C6.78136 3.30711 6.64358 3.25004 6.49992 3.25004C6.35626 3.25004 6.21849 3.30711 6.11691 3.40869C6.01532 3.51027 5.95825 3.64805 5.95825 3.79171V6.50004C5.95825 6.50004 5.95825 6.54337 5.95825 6.56504C5.96146 6.60236 5.9706 6.63893 5.98534 6.67337C5.99649 6.70551 6.01102 6.73638 6.02867 6.76546C6.04349 6.79625 6.06166 6.82531 6.08284 6.85212L6.16951 6.92254L6.21825 6.97129L7.62659 7.78379C7.70914 7.83058 7.80253 7.85486 7.89742 7.85421C8.01736 7.85505 8.13418 7.81606 8.22956 7.74335C8.32495 7.67064 8.39351 7.56834 8.42449 7.45247C8.45547 7.3366 8.44712 7.21373 8.40075 7.10312C8.35438 6.99251 8.2726 6.90042 8.16825 6.84129H8.17909Z" fill="#00223E"/>
</svg>
