<svg width="44" height="44" viewBox="0 0 44 44" fill="none" xmlns="http://www.w3.org/2000/svg">
<rect width="44" height="44" rx="10" fill="#37CF76" fill-opacity="0.1"/>
<path d="M27.496 24.3827C27.1952 24.2305 25.7305 23.5157 25.4567 23.4137C25.183 23.3162 24.9842 23.2652 24.7847 23.566C24.5897 23.8592 24.0152 24.5305 23.8397 24.7262C23.6642 24.922 23.4917 24.937 23.1955 24.8043C22.8947 24.652 21.934 24.3392 20.7933 23.3162C19.9023 22.5235 19.309 21.547 19.1327 21.2463C18.9572 20.9493 19.1132 20.7812 19.2618 20.6327C19.3982 20.4963 19.5625 20.2893 19.7148 20.1093C19.8595 19.9292 19.906 19.8085 20.0118 19.6135C20.1093 19.4028 20.059 19.2385 19.9847 19.09C19.9105 18.9415 19.3127 17.4693 19.063 16.8828C18.8245 16.3007 18.5747 16.375 18.391 16.375C18.2192 16.3593 18.0198 16.3593 17.821 16.3593C17.6223 16.3593 17.2975 16.4335 17.0237 16.7185C16.75 17.0192 15.9767 17.7378 15.9767 19.1912C15.9767 20.6485 17.047 22.0585 17.1955 22.2692C17.3477 22.4642 19.3007 25.4642 22.297 26.7535C23.0118 27.0542 23.5667 27.2342 24.0002 27.3827C24.715 27.6092 25.3675 27.5777 25.8827 27.5035C26.4527 27.4097 27.6483 26.7805 27.8988 26.0778C28.153 25.3705 28.153 24.7847 28.0788 24.652C28.0045 24.5155 27.8095 24.4412 27.5087 24.3085L27.496 24.3827ZM22.0623 31.75H22.0465C20.2727 31.75 18.5192 31.2692 16.9878 30.3708L16.6285 30.1562L12.8785 31.1327L13.8865 27.484L13.6443 27.109C12.6538 25.5343 12.1284 23.7118 12.1285 21.8515C12.1285 16.4065 16.5858 11.965 22.0697 11.965C24.7263 11.965 27.2185 13 29.0935 14.875C30.0185 15.7889 30.7521 16.8779 31.2518 18.0784C31.7514 19.279 32.0069 20.5669 32.0035 21.8673C31.996 27.3085 27.5425 31.75 22.066 31.75H22.0623ZM30.5192 13.4492C28.2377 11.2457 25.2378 10 22.0465 10C15.4645 10 10.105 15.3362 10.1013 21.8942C10.1013 23.9882 10.648 26.0312 11.695 27.8395L10 34L16.336 32.3478C18.0912 33.2941 20.0532 33.7918 22.0472 33.7967H22.051C28.6368 33.7967 33.9963 28.4605 34 21.898C34 18.7225 32.7618 15.7337 30.5042 13.4875L30.5192 13.4492Z" fill="#37CF76"/>
</svg>
