<svg width="13" height="12" viewBox="0 0 13 12" fill="none" xmlns="http://www.w3.org/2000/svg">
<path d="M10.9792 0.850702C11.2039 0.623273 11.5028 0.497541 11.813 0.500036C12.1232 0.502532 12.4203 0.633061 12.6417 0.864078C12.8631 1.0951 12.9914 1.40853 12.9996 1.73825C13.0078 2.06797 12.8952 2.38819 12.6856 2.63132L6.32264 11.0935C6.21323 11.2188 6.08117 11.3194 5.93437 11.3892C5.78757 11.459 5.62904 11.4966 5.46826 11.4998C5.30748 11.5029 5.14775 11.4716 4.99862 11.4076C4.8495 11.3436 4.71403 11.2483 4.60033 11.1274L0.380675 6.64026C0.263165 6.52382 0.168913 6.3834 0.103542 6.22739C0.0381707 6.07137 0.00301963 5.90296 0.000186137 5.73218C-0.00264735 5.56141 0.0268948 5.39177 0.0870496 5.2334C0.147204 5.07503 0.23674 4.93117 0.350315 4.81039C0.463889 4.68962 0.599176 4.59441 0.748105 4.53044C0.897034 4.46647 1.05655 4.43506 1.21715 4.43807C1.37774 4.44108 1.53612 4.47846 1.68283 4.54798C1.82955 4.61749 1.96159 4.71772 2.07109 4.84268L5.41045 8.39205L10.949 0.888011C10.9589 0.874954 10.9696 0.862498 10.9808 0.850702H10.9792Z" fill="#37CF76"/>
</svg>
