<svg width="168" height="102" viewBox="0 0 168 102" fill="none" xmlns="http://www.w3.org/2000/svg">
<path d="M167.374 100.952C167.374 101.395 130.046 101.754 84 101.754C37.9538 101.754 0.625977 101.395 0.625977 100.952C0.625977 100.509 37.9538 100.15 84 100.15C130.046 100.15 167.374 100.509 167.374 100.952Z" fill="#E1E1E1"/>
<path d="M55.6323 42.1568V4.22452C55.6323 1.89127 57.5238 0 59.8571 0H133.864C136.197 0 138.089 1.89127 138.089 4.22452V42.1568C138.089 44.49 136.197 46.3815 133.864 46.3815H59.8571C57.5238 46.3815 55.6323 44.49 55.6323 42.1568Z" fill="#E1E1E1"/>
<path d="M133.82 6.06464H59.9014C58.9628 6.06464 58.202 5.30377 58.202 4.36523V4.22675C58.202 3.28821 58.9628 2.52734 59.9014 2.52734H133.82C134.758 2.52734 135.519 3.28821 135.519 4.22675V4.36523C135.519 5.30377 134.758 6.06464 133.82 6.06464Z" fill="white"/>
<path d="M60.6968 5.09001H60.414C60.0537 5.09001 59.7616 4.79797 59.7616 4.43768V4.15477C59.7616 3.79448 60.0537 3.50244 60.414 3.50244H60.6968C61.0571 3.50244 61.3492 3.79448 61.3492 4.15477V4.43768C61.3492 4.79797 61.0571 5.09001 60.6968 5.09001Z" fill="#DE585F"/>
<path d="M63.0225 5.09001H62.7396C62.3793 5.09001 62.0873 4.79797 62.0873 4.43768V4.15477C62.0873 3.79448 62.3793 3.50244 62.7396 3.50244H63.0225C63.3828 3.50244 63.6748 3.79448 63.6748 4.15477V4.43768C63.6748 4.79797 63.3828 5.09001 63.0225 5.09001Z" fill="#FAAF3A"/>
<path d="M65.3482 5.09001H65.0653C64.705 5.09001 64.413 4.79797 64.413 4.43768V4.15477C64.413 3.79448 64.705 3.50244 65.0653 3.50244H65.3482C65.7085 3.50244 66.0005 3.79448 66.0005 4.15477V4.43768C66.0005 4.79797 65.7085 5.09001 65.3482 5.09001Z" fill="#D9DF20"/>
<path d="M118.24 26.6709H75.8754C73.9884 26.6709 72.4586 25.1412 72.4586 23.2542V22.9757C72.4586 21.0887 73.9884 19.5591 75.8754 19.5591H118.24C120.127 19.5591 121.656 21.0887 121.656 22.9757V23.2542C121.656 25.1412 120.127 26.6709 118.24 26.6709Z" fill="white"/>
<path d="M87.6912 19.5591H76.0145C74.0506 19.5591 72.4586 21.1512 72.4586 23.115V23.1151C72.4586 25.0789 74.0506 26.6709 76.0145 26.6709H87.6912V19.5591Z" fill="#0D6EFD"/>
<path d="M77.1163 21.892C77.2849 21.8614 77.5188 21.8384 77.8367 21.8384C78.1816 21.8384 78.4344 21.9111 78.5992 22.0491C78.7524 22.1756 78.8521 22.3785 78.8521 22.6198C78.8521 22.8651 78.7753 23.0681 78.6297 23.206C78.4419 23.3938 78.147 23.4821 77.8136 23.4821C77.7255 23.4821 77.6452 23.478 77.5838 23.4666V24.4398H77.1163V21.892ZM77.5838 23.0949C77.6413 23.1102 77.7178 23.1141 77.8136 23.1141C78.1662 23.1141 78.3808 22.9417 78.3808 22.639C78.3808 22.3517 78.1815 22.1983 77.8557 22.1983C77.7255 22.1983 77.6337 22.2099 77.5838 22.2213V23.0949Z" fill="white"/>
<path d="M79.5035 23.708L79.2812 24.4397H78.7947L79.6223 21.8574H80.2237L81.0628 24.4397H80.557L80.3234 23.708H79.5035ZM80.2429 23.3515L80.0398 22.7156C79.99 22.5585 79.9479 22.3823 79.9096 22.2329H79.9019C79.8635 22.3823 79.8254 22.5624 79.7793 22.7156L79.5801 23.3515H80.2429Z" fill="white"/>
<path d="M81.4117 23.9265C81.5649 24.0147 81.7947 24.0913 82.0361 24.0913C82.3388 24.0913 82.5073 23.9495 82.5073 23.7388C82.5073 23.5435 82.3771 23.4285 82.0475 23.3096C81.6223 23.1564 81.3502 22.9304 81.3502 22.5588C81.3502 22.1373 81.7028 21.8154 82.2622 21.8154C82.5419 21.8154 82.7486 21.8767 82.8828 21.9458L82.7678 22.3251C82.6759 22.2752 82.4959 22.2025 82.2545 22.2025C81.9556 22.2025 81.8254 22.3634 81.8254 22.5128C81.8254 22.712 81.9748 22.8039 82.3195 22.9381C82.7678 23.1067 82.9863 23.3327 82.9863 23.7043C82.9863 24.1181 82.672 24.4783 82.0055 24.4783C81.7334 24.4783 81.45 24.4016 81.3082 24.3173L81.4117 23.9265Z" fill="white"/>
<path d="M83.4002 23.9265C83.5535 24.0147 83.7832 24.0913 84.0246 24.0913C84.3273 24.0913 84.4958 23.9495 84.4958 23.7388C84.4958 23.5435 84.3656 23.4285 84.036 23.3096C83.6108 23.1564 83.3387 22.9304 83.3387 22.5588C83.3387 22.1373 83.6913 21.8154 84.2507 21.8154C84.5304 21.8154 84.7371 21.8767 84.8713 21.9458L84.7563 22.3251C84.6644 22.2752 84.4844 22.2025 84.2429 22.2025C83.9441 22.2025 83.8139 22.3634 83.8139 22.5128C83.8139 22.712 83.9633 22.8039 84.3081 22.9381C84.7563 23.1067 84.9748 23.3327 84.9748 23.7043C84.9748 24.1181 84.6605 24.4783 83.994 24.4783C83.7219 24.4783 83.4385 24.4016 83.2968 24.3173L83.4002 23.9265Z" fill="white"/>
<path d="M68.3356 66.8234C68.3356 66.8234 67.6268 65.5677 70.4771 65.6344C71.5064 65.6585 78.9859 66.2513 80.4273 66.2616C82.841 66.279 84.4729 68.7298 83.557 70.9631L75.0434 91.7231H71.4729L74.845 74.5277C74.845 74.5277 57.4124 79.0913 56.3588 76.936C55.5653 75.3124 65.8846 67.3011 68.3356 66.8234Z" fill="#A4C7FA"/>
<path d="M54.0961 65.298C54.0961 65.298 59.4098 64.619 62.2601 64.6858C65.1104 64.7525 70.7922 73.7853 70.7922 73.7853L61.4681 94.0262L58.2828 93.0109L63.1769 73.9291C63.1769 73.9291 50.6063 74.3133 49.5529 72.1581C48.7593 70.5344 51.6451 65.7757 54.0961 65.298Z" fill="#A4C7FA"/>
<path d="M35.4128 101.383H36.7565L47.758 66.2271L45.5975 66.207L35.4128 101.383Z" fill="#E1E1E1"/>
<path d="M122.04 101.383H123.384L113.286 65.8306L111.248 66.0853L122.04 101.383Z" fill="#E1E1E1"/>
<path d="M125.413 66.2811H33.3834C32.981 66.2811 32.6548 65.9548 32.6548 65.5525V64.5126C32.6548 63.9425 33.1168 63.4805 33.6868 63.4805H125.11C125.68 63.4805 126.142 63.9425 126.142 64.5126V65.5525C126.142 65.9548 125.816 66.2811 125.413 66.2811Z" fill="#E1E1E1"/>
<path d="M105.943 48.6567H88.1486C87.8321 48.6567 87.5992 48.8553 87.5666 49.1532L86.1084 62.4759C86.0549 62.965 86.5465 63.4807 87.0664 63.4807H104.557C104.874 63.4807 105.107 63.2821 105.139 62.9842L106.629 49.3762C106.667 49.0259 106.315 48.6567 105.943 48.6567Z" fill="#BCCCD3"/>
<path d="M86.9059 62.7062L88.3589 49.4307H105.8L104.347 62.7062H86.9059Z" fill="white"/>
<path d="M90.6701 62.5137H74.6599C74.3928 62.5137 74.2307 62.7302 74.2975 62.9971C74.3644 63.264 74.6349 63.4804 74.9018 63.4804H90.912C91.179 63.4804 91.3412 63.264 91.2743 62.9971C91.2075 62.7302 90.937 62.5137 90.6701 62.5137Z" fill="#BCCCD3"/>
<path d="M103.963 62.5137H87.9527C87.6857 62.5137 87.5235 62.7302 87.5904 62.9971C87.6572 63.264 87.9279 63.4804 88.1948 63.4804H104.205C104.472 63.4804 104.634 63.264 104.567 62.9971C104.5 62.7302 104.23 62.5137 103.963 62.5137Z" fill="#AFBDC6"/>
<path d="M74.852 91.7227L73.7808 94.026L71.6782 93.8914L72.2099 91.7227H74.852Z" fill="#FFE0D9"/>
<path d="M58.8454 93.1899L58.4298 94.5935L60.308 95.3149L61.1012 93.9091L58.8454 93.1899Z" fill="#FFE0D9"/>
<path d="M62.1166 47.6198L62.6699 43.4734L65.8408 36.8492L69.1197 35.5586L70.1005 38.4605C70.1869 38.7162 70.1615 38.9965 70.0303 39.2323L69.6824 39.8577C69.6077 39.9923 69.5664 40.1431 69.5622 40.2971L69.5046 42.4153C69.4965 42.7124 69.3509 42.9891 69.1105 43.1638L67.5546 44.2946C67.3185 44.4663 67.1736 44.7364 67.1611 45.028L67.0617 47.3445L62.1166 47.6198Z" fill="#FFE0D9"/>
<path d="M66.5378 42.0298C66.5378 42.0298 65.7294 41.7155 64.1876 41.2203C64.0561 41.1779 63.9246 41.1467 63.7937 41.126L62.67 43.4738L62.1886 47.0803C62.6551 47.1676 63.0917 47.2013 63.3241 47.3091C64.0536 47.648 64.8712 47.3229 65.2374 46.8861C65.5611 46.4995 65.7867 45.6355 65.7647 43.8875C65.7574 43.3057 66.5378 42.0298 66.5378 42.0298Z" fill="#FFE0D9"/>
<path d="M62.6701 43.4734L61.6107 39.2331C61.1013 37.1941 61.9867 35.0619 63.7908 33.9836L64.4807 33.5711C65.7501 32.8122 67.2187 32.4535 68.695 32.5413L69.3756 32.5818C70.6652 32.6587 71.5691 33.8866 71.2595 35.1408C71.1324 35.6556 70.8126 36.1016 70.366 36.3871L67.9408 37.9373C67.7631 38.0508 67.6337 38.2263 67.5777 38.4295L66.7178 41.5484C66.3207 42.9889 64.887 43.8856 63.4179 43.6125L62.6701 43.4734Z" fill="#513115"/>
<path d="M68.1692 39.9793C68.2844 40.6423 67.8402 41.2731 67.1772 41.3882C66.5142 41.5034 65.8834 41.0594 65.7683 40.3964C65.6531 39.7334 66.0973 39.1026 66.7603 38.9874C67.4233 38.8723 68.0541 39.3163 68.1692 39.9793Z" fill="#FFE0D9"/>
<path d="M71.8993 92.9897L71.2099 95.1302C71.1067 95.451 71.2984 95.7919 71.6261 95.8702L73.365 96.4364L73.6605 96.0205L74.852 96.3342C76.2763 97.1028 77.983 97.141 79.4402 96.4367C79.7127 96.305 79.7221 95.9206 79.4566 95.7756L74.1622 93.2062L71.8993 92.9897Z" fill="#2E2C33"/>
<path d="M58.4299 94.5938L60.3081 95.3151L61.2567 96.1331H57.4357L58.4299 94.5938Z" fill="#2E2C33"/>
<path d="M71.3207 69.8051L54.2195 72.5892L56.0904 50.0023C56.1575 46.282 60.1269 45.7185 62.4687 44.9819C62.5173 46.0355 66.3894 45.4618 67.1611 45.0278C68.0507 45.1783 70.0504 45.1083 70.0504 45.1083L72.1028 51.5338L71.3207 69.8051Z" fill="#0D6EFD"/>
<path d="M66.0501 37.8082L66.3011 39.2813L68.7228 40.2775L69.5546 38.7313L67.015 37.7629L66.0501 37.8082Z" fill="#FFE0D9"/>
<path d="M66.9505 38.1208L67.015 37.7628C67.015 37.7628 64.2744 36.0659 63.0934 36.7387C62.675 36.9771 61.9448 37.7973 62.3357 37.8844C64.4169 38.349 64.8208 39.339 65.9395 39.5012C66.5315 39.1191 66.9505 38.1208 66.9505 38.1208Z" fill="#FFE0D9"/>
<path d="M65.2894 38.5136C65.2894 38.5136 64.6404 38.7973 64.49 38.7942C64.3394 38.791 63.235 38.8508 63.135 38.941C63.0349 39.0314 62.9685 39.2423 62.9685 39.2423C62.9685 39.2423 64.0742 39.3714 64.2203 39.425C64.3664 39.4788 65.1171 39.6717 65.9398 39.5012C66.7624 39.3306 66.4195 37.9675 66.4195 37.9675L65.2894 38.5136Z" fill="#FFE0D9"/>
<path d="M69.7093 45.398L73.2019 44.0194C73.3769 43.9504 73.3941 43.7094 73.2307 43.616L66.6768 39.8753L67.8905 37.7865L79.6419 42.6328C80.6958 43.0675 80.8825 44.4805 79.9779 45.174L71.065 52.0057L69.7093 45.398Z" fill="#0D6EFD"/>
<path d="M70.7128 81.2637H56.1207C51.2149 81.2637 47.4535 76.9068 48.1694 72.0535L50.9416 53.2657C51.3898 50.2268 53.9975 47.9756 57.0694 47.9756H60.8958C63.7208 47.9756 66.188 49.8869 66.8937 52.6224L70.5965 66.9743L76.8484 67.26C78.7209 67.3455 80.2701 68.7463 80.5436 70.6006C81.3721 76.2197 77.0173 81.2637 71.3375 81.2637H70.7128Z" fill="#E1E1E1"/>
<path d="M64.1891 97.846H62.1649V81.2637H64.1891V97.846Z" fill="#E1E1E1"/>
<path d="M74.2342 97.1286V98.1574H52.1201V97.1286C52.1201 96.5789 52.5659 96.1333 53.1157 96.1333H73.2387C73.7885 96.1333 74.2342 96.5789 74.2342 97.1286Z" fill="#E1E1E1"/>
<path d="M52.1202 97.8462H54.1444V99.7967C54.1444 100.091 53.9055 100.33 53.6108 100.33H52.6538C52.3591 100.33 52.1202 100.091 52.1202 99.7967V97.8462Z" fill="#E1E1E1"/>
<path d="M72.21 97.8462H74.2341V99.7967C74.2341 100.091 73.9951 100.33 73.7004 100.33H72.7435C72.4488 100.33 72.21 100.091 72.21 99.7967V97.8462Z" fill="#E1E1E1"/>
<path d="M62.1649 97.8462H64.1891V99.7967C64.1891 100.091 63.9501 100.33 63.6555 100.33H62.6985C62.4038 100.33 62.1649 100.091 62.1649 99.7967V97.8462Z" fill="#E1E1E1"/>
<path d="M66.5365 83.3759H59.8179C58.9144 83.3759 58.1819 82.6434 58.1819 81.7399V81.2637H68.1725V81.7399C68.1725 82.6434 67.44 83.3759 66.5365 83.3759Z" fill="#E1E1E1"/>
<path d="M64.3142 30.4842C64.2623 30.2736 64.2367 30.1186 64.2361 30.0185C64.2368 29.9192 64.2529 29.826 64.287 29.7405C64.3197 29.6542 64.4017 29.5137 64.5311 29.3161C64.7251 29.0236 64.8439 28.7867 64.8893 28.607C64.9343 28.4263 64.932 28.2434 64.8821 28.0573C64.7958 27.7352 64.599 27.4939 64.2895 27.3341C63.981 27.174 63.6178 27.1494 63.202 27.2608C62.8075 27.3665 62.5199 27.5563 62.3374 27.832C62.1549 28.1077 62.0917 28.4506 62.1504 28.8611L62.7056 28.7807C62.6718 28.4718 62.7112 28.2276 62.8238 28.0482C62.9351 27.8679 63.1026 27.7489 63.3259 27.6891C63.5566 27.6273 63.7717 27.6517 63.9715 27.7634C64.1723 27.8749 64.2999 28.0321 64.3546 28.2363C64.3845 28.3479 64.3848 28.4595 64.3559 28.5687C64.3273 28.6789 64.2432 28.8371 64.1055 29.0461C63.9664 29.2543 63.8737 29.4102 63.8268 29.5116C63.7619 29.6521 63.724 29.7831 63.7117 29.9072C63.6931 30.0717 63.712 30.257 63.7669 30.4622C63.7763 30.4973 63.7903 30.5494 63.8112 30.619L64.3142 30.4842ZM64.657 31.5171L64.4972 30.9206L63.9007 31.0805L64.0605 31.677L64.657 31.5171Z" fill="#513216"/>
<path d="M90.4753 21.8506C91.0581 21.8506 91.5312 22.3196 91.5312 22.8972C91.5312 23.4749 91.0581 23.9439 90.4753 23.9439C89.8926 23.9439 89.4194 23.4749 89.4194 22.8972C89.4194 22.3196 89.8926 21.8506 90.4753 21.8506Z" fill="black"/>
<path d="M93.6677 21.8506C94.2504 21.8506 94.7236 22.3196 94.7236 22.8972C94.7236 23.4749 94.2504 23.9439 93.6677 23.9439C93.085 23.9439 92.6118 23.4749 92.6118 22.8972C92.6118 22.3196 93.085 21.8506 93.6677 21.8506Z" fill="black"/>
<path d="M97.1902 21.8506C97.7729 21.8506 98.246 22.3196 98.246 22.8972C98.246 23.4749 97.7729 23.9439 97.1902 23.9439C96.6074 23.9439 96.1343 23.4749 96.1343 22.8972C96.1343 22.3196 96.6074 21.8506 97.1902 21.8506Z" fill="black"/>
<path d="M100.713 21.8506C101.295 21.8506 101.769 22.3196 101.769 22.8972C101.769 23.4749 101.295 23.9439 100.713 23.9439C100.13 23.9439 99.6569 23.4749 99.6569 22.8972C99.6569 22.3196 100.13 21.8506 100.713 21.8506Z" fill="black"/>
<path d="M104.455 21.8506C105.038 21.8506 105.511 22.3196 105.511 22.8972C105.511 23.4749 105.038 23.9439 104.455 23.9439C103.873 23.9439 103.4 23.4749 103.4 22.8972C103.4 22.3196 103.873 21.8506 104.455 21.8506Z" fill="black"/>
<path d="M108.308 21.8506C108.891 21.8506 109.364 22.3196 109.364 22.8972C109.364 23.4749 108.891 23.9439 108.308 23.9439C107.725 23.9439 107.252 23.4749 107.252 22.8972C107.252 22.3196 107.725 21.8506 108.308 21.8506Z" fill="black"/>
</svg>
